<svg width="16" height="16" viewBox="0 0 16 16" fill="none" xmlns="http://www.w3.org/2000/svg">
<path d="M8.97503 1.61249C8.97503 1.42353 8.89996 1.2423 8.76634 1.10868C8.63272 0.975061 8.45149 0.899994 8.26252 0.899994C8.07356 0.899994 7.89233 0.975061 7.75871 1.10868C7.62509 1.2423 7.55002 1.42353 7.55002 1.61249V7.54999H1.61252C1.42356 7.54999 1.24233 7.62506 1.10871 7.75868C0.975091 7.8923 0.900024 8.07353 0.900024 8.26249C0.900024 8.45146 0.975091 8.63269 1.10871 8.76631C1.24233 8.89993 1.42356 8.97499 1.61252 8.97499H7.55002V14.9125C7.55002 15.1015 7.62509 15.2827 7.75871 15.4163C7.89233 15.5499 8.07356 15.625 8.26252 15.625C8.45149 15.625 8.63272 15.5499 8.76634 15.4163C8.89996 15.2827 8.97503 15.1015 8.97503 14.9125V8.97499H14.9125C15.1015 8.97499 15.2827 8.89993 15.4163 8.76631C15.55 8.63269 15.625 8.45146 15.625 8.26249C15.625 8.07353 15.55 7.8923 15.4163 7.75868C15.2827 7.62506 15.1015 7.54999 14.9125 7.54999H8.97503V1.61249Z" fill="#71717A"/>
</svg>
