<svg width="40" height="40" viewBox="0 0 40 40" fill="none" xmlns="http://www.w3.org/2000/svg">
<circle opacity="0.2" cx="20" cy="20" r="20" fill="#4EACB9"/>
<path fill-rule="evenodd" clip-rule="evenodd" d="M25.9497 14.4626C26.0812 14.4624 26.2115 14.4882 26.3331 14.5385C26.4546 14.5887 26.5651 14.6625 26.6581 14.7555C26.7511 14.8485 26.8248 14.9589 26.8751 15.0805C26.9254 15.202 26.9511 15.3323 26.951 15.4639L26.951 23.9491C26.9511 24.0807 26.9254 24.211 26.8751 24.3325C26.8248 24.4541 26.7511 24.5645 26.6581 24.6575C26.5651 24.7505 26.4546 24.8243 26.3331 24.8745C26.2115 24.9248 26.0812 24.9506 25.9497 24.9504L17.4644 24.9504C17.1989 24.9504 16.9442 24.8449 16.7564 24.6571C16.5687 24.4694 16.4632 24.2147 16.4632 23.9491C16.4632 23.6836 16.5687 23.4289 16.7564 23.2411C16.9442 23.0534 17.1989 22.9479 17.4644 22.9479L24.9499 22.9493L24.9484 15.4639C24.9483 15.3323 24.9741 15.2021 25.0243 15.0805C25.0746 14.9589 25.1483 14.8485 25.2413 14.7555C25.3343 14.6625 25.4448 14.5887 25.5663 14.5385C25.6879 14.4882 25.8182 14.4624 25.9497 14.4626Z" fill="#4EACB9"/>
<path fill-rule="evenodd" clip-rule="evenodd" d="M15.3432 13.3425C15.5307 13.1549 15.7851 13.0496 16.0503 13.0496C16.3155 13.0496 16.5699 13.1549 16.7574 13.3425L25.9498 22.5349C26.1373 22.7224 26.2427 22.9768 26.2427 23.242C26.2427 23.5072 26.1373 23.7615 25.9498 23.9491C25.7623 24.1366 25.5079 24.242 25.2427 24.242C24.9775 24.242 24.7231 24.1366 24.5356 23.9491L15.3432 14.7567C15.1556 14.5692 15.0503 14.3148 15.0503 14.0496C15.0503 13.7844 15.1556 13.53 15.3432 13.3425Z" fill="#4EACB9"/>
</svg>
