<svg width="40" height="40" viewBox="0 0 40 40" fill="none" xmlns="http://www.w3.org/2000/svg">
<circle opacity="0.2" cx="20" cy="20" r="20" fill="#ED8D35"/>
<path fill-rule="evenodd" clip-rule="evenodd" d="M16.4636 14.0508C16.4634 13.9192 16.4892 13.789 16.5395 13.6674C16.5897 13.5459 16.6635 13.4354 16.7565 13.3424C16.8495 13.2494 16.9599 13.1757 17.0815 13.1254C17.203 13.0751 17.3333 13.0494 17.4648 13.0495L25.9501 13.0495C26.0817 13.0493 26.2119 13.0751 26.3335 13.1254C26.455 13.1757 26.5655 13.2494 26.6585 13.3424C26.7515 13.4354 26.8252 13.5459 26.8755 13.6674C26.9258 13.789 26.9515 13.9192 26.9514 14.0508L26.9514 22.5361C26.9514 22.8016 26.8459 23.0563 26.6581 23.2441C26.4703 23.4318 26.2157 23.5373 25.9501 23.5373C25.6846 23.5373 25.4299 23.4318 25.2421 23.2441C25.0543 23.0563 24.9489 22.8016 24.9489 22.5361L24.9503 15.0506L17.4648 15.052C17.3333 15.0522 17.203 15.0264 17.0815 14.9762C16.9599 14.9259 16.8495 14.8522 16.7565 14.7592C16.6635 14.6661 16.5897 14.5557 16.5395 14.4341C16.4892 14.3126 16.4634 14.1823 16.4636 14.0508Z" fill="#ED8D35"/>
<path fill-rule="evenodd" clip-rule="evenodd" d="M15.3436 24.6574C15.156 24.4699 15.0507 24.2155 15.0507 23.9503C15.0507 23.6851 15.156 23.4307 15.3436 23.2432L24.536 14.0508C24.7235 13.8633 24.9779 13.7579 25.2431 13.7579C25.5083 13.7579 25.7626 13.8633 25.9502 14.0508C26.1377 14.2384 26.2431 14.4927 26.2431 14.7579C26.2431 15.0231 26.1377 15.2775 25.9502 15.465L16.7578 24.6574C16.5703 24.845 16.3159 24.9503 16.0507 24.9503C15.7855 24.9503 15.5311 24.845 15.3436 24.6574Z" fill="#ED8D35"/>
</svg>
