<svg width="72" height="48" viewBox="0 0 72 48" fill="none" xmlns="http://www.w3.org/2000/svg">
<path d="M0 5.53846C0 2.47966 2.47966 0 5.53846 0H66.4615C69.5204 0 72 2.47966 72 5.53846V42.4615C72 45.5204 69.5204 48 66.4615 48H5.53846C2.47966 48 0 45.5204 0 42.4615V5.53846Z" fill="#053b6d"/>
<path d="M90.1154 47.9996C129.306 47.9996 161.077 16.2291 161.077 -22.9618C161.077 -62.1528 129.306 -93.9233 90.1154 -93.9233C50.9244 -93.9233 19.1539 -62.1528 19.1539 -22.9618C19.1539 16.2291 50.9244 47.9996 90.1154 47.9996Z" fill="white" fill-opacity="0.09"/>
<g filter="url(#filter0_d)">
<path d="M32.7693 32.3071H6.92311C5.64861 32.3071 4.61542 33.3403 4.61542 34.6148V41.0764C4.61542 42.3509 5.64861 43.384 6.92311 43.384H32.7693C34.0438 43.384 35.077 42.3509 35.077 41.0764V34.6148C35.077 33.3403 34.0438 32.3071 32.7693 32.3071Z" fill="#053b6d"/>
<path d="M32.7693 32.3071H6.92311C5.64861 32.3071 4.61542 33.3403 4.61542 34.6148V41.0764C4.61542 42.3509 5.64861 43.384 6.92311 43.384H32.7693C34.0438 43.384 35.077 42.3509 35.077 41.0764V34.6148C35.077 33.3403 34.0438 32.3071 32.7693 32.3071Z" fill="white" fill-opacity="0.25"/>
</g>
<path d="M14.4231 36.6919H14.8846V38.9996H14.4231V36.6919ZM16.5 36.6919H16.7308V38.9996H16.5V36.6919ZM15.5769 36.6919H16.2692V38.9996H15.5769V36.6919ZM15.1154 36.6919H15.3462V38.9996H15.1154V36.6919ZM16.9616 36.6919H17.6539V38.9996H16.9616V36.6919Z" fill="white"/>
<path d="M14.1923 36.2306H15.1153V35.769H14.1923C13.9377 35.769 13.7307 35.976 13.7307 36.2306V37.1537H14.1923V36.2306ZM14.1923 39.9229H15.1153V39.4613H14.1923V38.5383H13.7307V39.4613C13.7307 39.7159 13.9377 39.9229 14.1923 39.9229ZM17.8846 35.769H16.9615V36.2306H17.8846V37.1537H18.3461V36.2306C18.3461 35.976 18.1391 35.769 17.8846 35.769ZM17.8846 39.4613H16.9615V39.9229H17.8846C18.1391 39.9229 18.3461 39.7159 18.3461 39.4613V38.5383H17.8846V39.4613Z" fill="white"/>
<path d="M20.9922 38.9998C20.9707 38.9998 20.9524 38.9922 20.9373 38.9772C20.9222 38.9622 20.9147 38.9437 20.9147 38.9223V36.8191C20.9147 36.7953 20.9211 36.7759 20.9341 36.7609C20.9491 36.7459 20.9685 36.7383 20.9922 36.7383H21.8581C22.1165 36.7383 22.3201 36.7997 22.4687 36.9224C22.6173 37.0431 22.6916 37.2208 22.6916 37.4555C22.6916 37.6902 22.6173 37.8679 22.4687 37.9886C22.3222 38.107 22.1187 38.1663 21.8581 38.1663H21.3767V38.9223C21.3767 38.9437 21.3691 38.9622 21.3541 38.9772C21.3411 38.9922 21.3228 38.9998 21.2991 38.9998H20.9922ZM21.8419 37.8077C21.9668 37.8077 22.0627 37.7786 22.1294 37.7204C22.1962 37.6602 22.2296 37.5718 22.2296 37.4555C22.2296 37.3436 22.1973 37.2564 22.1327 37.1938C22.0681 37.1292 21.9711 37.0969 21.8419 37.0969H21.3702V37.8077H21.8419ZM23.4587 39.0321C23.3488 39.0321 23.2477 39.0107 23.155 38.9675C23.0645 38.9223 22.9924 38.862 22.9385 38.7866C22.8869 38.7111 22.861 38.6283 22.861 38.5378C22.861 38.3913 22.9202 38.2729 23.0387 38.1824C23.1573 38.092 23.3197 38.0306 23.5265 37.9983L23.9691 37.9337V37.8658C23.9691 37.771 23.9456 37.6999 23.898 37.6526C23.8507 37.6053 23.7743 37.5815 23.6687 37.5815C23.5976 37.5815 23.5394 37.5956 23.4942 37.6235C23.4513 37.6494 23.4167 37.6752 23.3908 37.701C23.365 37.729 23.3479 37.7474 23.3391 37.756C23.3306 37.7818 23.3144 37.7947 23.2907 37.7947H23.0419C23.0225 37.7947 23.0053 37.7883 22.9902 37.7754C22.9773 37.7624 22.9709 37.7451 22.9709 37.7237C22.973 37.6699 22.9988 37.6085 23.0484 37.5395C23.1 37.4705 23.1787 37.4114 23.2842 37.3618C23.3899 37.3122 23.5191 37.2875 23.6719 37.2875C23.9262 37.2875 24.1113 37.3445 24.2276 37.4587C24.3439 37.573 24.402 37.7225 24.402 37.9078V38.9223C24.402 38.9437 24.3947 38.9622 24.3794 38.9772C24.3665 38.9922 24.3483 38.9998 24.3245 38.9998H24.0628C24.0413 38.9998 24.0231 38.9922 24.0079 38.9772C23.9929 38.9622 23.9853 38.9437 23.9853 38.9223V38.7963C23.938 38.8653 23.8701 38.9223 23.7817 38.9675C23.6957 39.0107 23.5879 39.0321 23.4587 39.0321ZM23.5685 38.7252C23.6871 38.7252 23.784 38.6864 23.8593 38.6089C23.9347 38.5314 23.9723 38.4183 23.9723 38.2697V38.2018L23.6493 38.2535C23.5244 38.2729 23.4296 38.304 23.365 38.3472C23.3027 38.3904 23.2713 38.443 23.2713 38.5055C23.2713 38.5745 23.3003 38.6283 23.3585 38.667C23.4167 38.7058 23.4868 38.7252 23.5685 38.7252ZM25.0761 39.6137C25.0588 39.6137 25.0438 39.6072 25.0309 39.5943C25.018 39.5814 25.0115 39.5664 25.0115 39.549C25.0115 39.5297 25.0159 39.5124 25.0244 39.4974L25.2764 38.8997L24.6561 37.4361C24.6476 37.4167 24.6432 37.4017 24.6432 37.3909C24.6453 37.3715 24.6529 37.3554 24.6658 37.3424C24.6787 37.3274 24.6949 37.3198 24.7143 37.3198H24.976C25.0168 37.3198 25.0459 37.3404 25.0632 37.3812L25.4929 38.4377L25.9355 37.3812C25.9528 37.3404 25.9819 37.3198 26.0227 37.3198H26.2812C26.2985 37.3198 26.3135 37.3263 26.3264 37.3392C26.3414 37.3521 26.349 37.3671 26.349 37.3844C26.349 37.3994 26.3447 37.4167 26.3361 37.4361L25.4218 39.5523C25.4024 39.5931 25.3722 39.6137 25.3313 39.6137H25.0761Z" fill="white"/>
<g filter="url(#filter1_d)">
<path d="M65.077 32.3071H39.2308C37.9563 32.3071 36.9231 33.3403 36.9231 34.6148V41.0764C36.9231 42.3509 37.9563 43.384 39.2308 43.384H65.077C66.3515 43.384 67.3847 42.3509 67.3847 41.0764V34.6148C67.3847 33.3403 66.3515 32.3071 65.077 32.3071Z" fill="#053b6d"/>
<path d="M65.077 32.3071H39.2308C37.9563 32.3071 36.9231 33.3403 36.9231 34.6148V41.0764C36.9231 42.3509 37.9563 43.384 39.2308 43.384H65.077C66.3515 43.384 67.3847 42.3509 67.3847 41.0764V34.6148C67.3847 33.3403 66.3515 32.3071 65.077 32.3071Z" fill="white" fill-opacity="0.25"/>
</g>
<path d="M44.9308 39.9229C45.7564 39.9229 46.5923 39.6374 46.5923 39.0921V36.5998C46.5923 36.0545 45.7564 35.769 44.9308 35.769C44.1051 35.769 43.2692 36.0545 43.2692 36.5998V39.0921C43.2692 39.6374 44.1051 39.9229 44.9308 39.9229ZM44.9308 39.5075C44.1577 39.5075 43.6846 39.2384 43.6846 39.0921V38.8288C44.0047 39.0028 44.469 39.0921 44.9308 39.0921C45.3925 39.0921 45.8568 39.0028 46.1769 38.8288V39.0921C46.1769 39.2384 45.7038 39.5075 44.9308 39.5075ZM44.9308 36.1844C45.7038 36.1844 46.1769 36.4533 46.1769 36.5998C46.1769 36.7461 45.7038 37.0152 44.9308 37.0152C44.1577 37.0152 43.6846 36.7461 43.6846 36.5998C43.6846 36.4533 44.1577 36.1844 44.9308 36.1844ZM43.6846 37.1673C44.0047 37.3413 44.469 37.4306 44.9308 37.4306C45.3925 37.4306 45.8568 37.3413 46.1769 37.1673V37.4306C46.1769 37.5769 45.7038 37.846 44.9308 37.846C44.1577 37.846 43.6846 37.5769 43.6846 37.4306V37.1673ZM43.6846 37.998C44.0047 38.172 44.469 38.2613 44.9308 38.2613C45.3925 38.2613 45.8568 38.172 46.1769 37.998V38.2613C46.1769 38.4077 45.7038 38.6767 44.9308 38.6767C44.1577 38.6767 43.6846 38.4077 43.6846 38.2613V37.998Z" fill="white"/>
<path d="M49.8531 38.9994C49.8314 38.9994 49.8131 38.9918 49.7981 38.9768C49.7829 38.9618 49.7755 38.9433 49.7755 38.9219V36.8186C49.7755 36.7949 49.782 36.7755 49.7949 36.7605C49.8099 36.7455 49.8293 36.7379 49.8531 36.7379H50.6898C50.9524 36.7379 51.1583 36.7993 51.3069 36.922C51.4576 37.0448 51.5331 37.2193 51.5331 37.4454C51.5331 37.6026 51.4943 37.735 51.4167 37.8428C51.3413 37.9483 51.2358 38.0249 51.1001 38.0722L51.5718 38.896C51.5783 38.909 51.5815 38.9207 51.5815 38.9316C51.5815 38.951 51.5739 38.9671 51.5589 38.98C51.546 38.993 51.5307 38.9994 51.5137 38.9994H51.2197C51.1851 38.9994 51.1583 38.9918 51.1389 38.9768C51.1216 38.9618 51.1054 38.9401 51.0904 38.9122L50.6737 38.1465H50.2246V38.9219C50.2246 38.9433 50.217 38.9618 50.202 38.9768C50.1891 38.9918 50.1706 38.9994 50.1471 38.9994H49.8531ZM50.6801 37.7814C50.8094 37.7814 50.9063 37.7523 50.9709 37.6942C51.0376 37.636 51.0711 37.552 51.0711 37.4422C51.0711 37.3323 51.0376 37.2472 50.9709 37.187C50.9063 37.1267 50.8094 37.0965 50.6801 37.0965H50.2246V37.7814H50.6801ZM52.6151 39.0317C52.3761 39.0317 52.1854 38.9627 52.0433 38.825C51.9034 38.6849 51.8291 38.489 51.8204 38.237L51.8171 38.1562L51.8204 38.0754C51.8312 37.8299 51.9067 37.6372 52.0465 37.4971C52.1887 37.357 52.3784 37.2871 52.6151 37.2871C52.8694 37.2871 53.0654 37.3646 53.2031 37.5197C53.3432 37.6748 53.4131 37.8816 53.4131 38.14V38.2079C53.4131 38.2293 53.4057 38.2478 53.3905 38.2628C53.3755 38.2778 53.3561 38.2854 53.3324 38.2854H52.2597V38.3113C52.2641 38.4296 52.2964 38.5298 52.3567 38.6117C52.4192 38.6913 52.5044 38.7313 52.6119 38.7313C52.7391 38.7313 52.8413 38.6816 52.9188 38.5826C52.9382 38.5589 52.9534 38.5439 52.9641 38.5374C52.977 38.531 52.9954 38.5277 53.019 38.5277H53.2968C53.3162 38.5277 53.3324 38.5342 53.3453 38.5471C53.3605 38.558 53.3679 38.5718 53.3679 38.5891C53.3679 38.6408 53.3367 38.7022 53.2742 38.7733C53.214 38.8423 53.1267 38.9025 53.0125 38.9542C52.8985 39.0059 52.7661 39.0317 52.6151 39.0317ZM52.9737 38.014V38.0043C52.9737 37.8772 52.9414 37.775 52.8768 37.6974C52.8145 37.6199 52.7273 37.5811 52.6151 37.5811C52.5032 37.5811 52.416 37.6199 52.3534 37.6974C52.2911 37.775 52.2597 37.8772 52.2597 38.0043V38.014H52.9737ZM54.3798 39.0317C54.1622 39.0317 53.9954 38.9618 53.8791 38.8217C53.7627 38.6816 53.7002 38.4954 53.6917 38.2628L53.6884 38.1562L53.6917 38.0528C53.6981 37.8266 53.7595 37.6425 53.8758 37.5003C53.9942 37.3582 54.1622 37.2871 54.3798 37.2871C54.5887 37.2871 54.7546 37.3582 54.8774 37.5003V36.7831C54.8774 36.7593 54.8847 36.7411 54.9 36.7282C54.915 36.7132 54.9332 36.7056 54.9549 36.7056H55.2295C55.2531 36.7056 55.2715 36.7132 55.2844 36.7282C55.2994 36.7411 55.3071 36.7593 55.3071 36.7831V38.9219C55.3071 38.9433 55.2994 38.9618 55.2844 38.9768C55.2715 38.9918 55.2531 38.9994 55.2295 38.9994H54.9743C54.9526 38.9994 54.9344 38.9918 54.9194 38.9768C54.9041 38.9618 54.8967 38.9433 54.8967 38.9219V38.8023C54.774 38.9553 54.6016 39.0317 54.3798 39.0317ZM54.4994 38.686C54.6242 38.686 54.7167 38.6461 54.7772 38.5665C54.8374 38.4869 54.8709 38.3888 54.8774 38.2725C54.8794 38.2466 54.8806 38.2046 54.8806 38.1465C54.8806 38.0904 54.8794 38.0496 54.8774 38.0237C54.873 37.916 54.8386 37.8246 54.774 37.7491C54.7114 37.6716 54.6198 37.6328 54.4994 37.6328C54.2667 37.6328 54.1428 37.7761 54.1278 38.0625L54.1246 38.1594L54.1278 38.2563C54.1428 38.5427 54.2667 38.686 54.4994 38.686ZM56.4611 39.0317C56.2221 39.0317 56.0314 38.9627 55.8893 38.825C55.7494 38.6849 55.6751 38.489 55.6664 38.237L55.6631 38.1562L55.6664 38.0754C55.6772 37.8299 55.7527 37.6372 55.8925 37.4971C56.0347 37.357 56.2244 37.2871 56.4611 37.2871C56.7154 37.2871 56.9114 37.3646 57.0491 37.5197C57.1892 37.6748 57.2591 37.8816 57.2591 38.14V38.2079C57.2591 38.2293 57.2517 38.2478 57.2365 38.2628C57.2215 38.2778 57.2021 38.2854 57.1784 38.2854H56.1057V38.3113C56.1101 38.4296 56.1424 38.5298 56.2027 38.6117C56.2652 38.6913 56.3504 38.7313 56.4579 38.7313C56.5851 38.7313 56.6873 38.6816 56.7648 38.5826C56.7842 38.5589 56.7994 38.5439 56.8101 38.5374C56.823 38.531 56.8414 38.5277 56.865 38.5277H57.1428C57.1622 38.5277 57.1784 38.5342 57.1913 38.5471C57.2065 38.558 57.2139 38.5718 57.2139 38.5891C57.2139 38.6408 57.1827 38.7022 57.1202 38.7733C57.06 38.8423 56.9727 38.9025 56.8585 38.9542C56.7445 39.0059 56.6121 39.0317 56.4611 39.0317ZM56.8197 38.014V38.0043C56.8197 37.8772 56.7874 37.775 56.7228 37.6974C56.6605 37.6199 56.5733 37.5811 56.4611 37.5811C56.3492 37.5811 56.262 37.6199 56.1994 37.6974C56.1371 37.775 56.1057 37.8772 56.1057 38.0043V38.014H56.8197ZM58.326 39.0317C58.0869 39.0317 57.8963 38.9627 57.7541 38.825C57.6141 38.6849 57.5397 38.489 57.5312 38.237L57.528 38.1562L57.5312 38.0754C57.5418 37.8299 57.6173 37.6372 57.7574 37.4971C57.8995 37.357 58.089 37.2871 58.326 37.2871C58.5801 37.2871 58.776 37.3646 58.914 37.5197C59.0538 37.6748 59.124 37.8816 59.124 38.14V38.2079C59.124 38.2293 59.1164 38.2478 59.1014 38.2628C59.0861 38.2778 59.0667 38.2854 59.0432 38.2854H57.9706V38.3113C57.9747 38.4296 58.0071 38.5298 58.0675 38.6117C58.1298 38.6913 58.215 38.7313 58.3227 38.7313C58.4497 38.7313 58.5521 38.6816 58.6297 38.5826C58.6491 38.5589 58.6641 38.5439 58.6749 38.5374C58.6878 38.531 58.7061 38.5277 58.7298 38.5277H59.0077C59.0271 38.5277 59.0432 38.5342 59.0561 38.5471C59.0711 38.558 59.0787 38.5718 59.0787 38.5891C59.0787 38.6408 59.0474 38.7022 58.9851 38.7733C58.9246 38.8423 58.8374 38.9025 58.7234 38.9542C58.6091 39.0059 58.4767 39.0317 58.326 39.0317ZM58.6846 38.014V38.0043C58.6846 37.8772 58.6523 37.775 58.5877 37.6974C58.5251 37.6199 58.4379 37.5811 58.326 37.5811C58.2138 37.5811 58.1266 37.6199 58.0643 37.6974C58.0017 37.775 57.9706 37.8772 57.9706 38.0043V38.014H58.6846ZM59.5444 38.9994C59.5227 38.9994 59.5045 38.9918 59.4895 38.9768C59.4743 38.9618 59.4669 38.9433 59.4669 38.9219V37.397C59.4669 37.3755 59.4743 37.357 59.4895 37.342C59.5045 37.327 59.5227 37.3194 59.5444 37.3194H59.7964C59.8179 37.3194 59.8361 37.327 59.8514 37.342C59.8664 37.357 59.874 37.3755 59.874 37.397V37.5068C59.9859 37.3603 60.1421 37.2871 60.3424 37.2871C60.5815 37.2871 60.7484 37.3829 60.8432 37.5746C60.8949 37.4886 60.9681 37.4196 61.0629 37.3679C61.1575 37.3141 61.26 37.2871 61.3698 37.2871C61.5464 37.2871 61.6906 37.3473 61.8027 37.468C61.9147 37.5887 61.9707 37.7641 61.9707 37.9946V38.9219C61.9707 38.9433 61.9631 38.9618 61.9481 38.9768C61.9352 38.9918 61.9167 38.9994 61.8932 38.9994H61.6283C61.6066 38.9994 61.5884 38.9918 61.5734 38.9768C61.5581 38.9618 61.5507 38.9433 61.5507 38.9219V38.0205C61.5507 37.8848 61.5217 37.7867 61.4635 37.7265C61.4074 37.664 61.332 37.6328 61.2374 37.6328C61.1534 37.6328 61.0811 37.664 61.0209 37.7265C60.9627 37.789 60.9337 37.8869 60.9337 38.0205V38.9219C60.9337 38.9433 60.9261 38.9618 60.9111 38.9768C60.8958 38.9918 60.8776 38.9994 60.8561 38.9994H60.5912C60.5695 38.9994 60.5513 38.9918 60.5363 38.9768C60.5211 38.9618 60.5137 38.9433 60.5137 38.9219V38.0205C60.5137 37.8848 60.4834 37.7867 60.4232 37.7265C60.3651 37.664 60.2907 37.6328 60.2003 37.6328C60.114 37.6328 60.0408 37.664 59.9806 37.7265C59.9224 37.789 59.8934 37.8869 59.8934 38.0205V38.9219C59.8934 38.9433 59.8857 38.9618 59.8707 38.9768C59.8555 38.9918 59.8373 38.9994 59.8158 38.9994H59.5444Z" fill="white"/>
<path d="M67.3846 8.76908C67.3846 6.47497 65.5249 4.61523 63.2308 4.61523C60.9367 4.61523 59.077 6.47497 59.077 8.76908C59.077 11.0632 60.9367 12.9229 63.2308 12.9229C65.5249 12.9229 67.3846 11.0632 67.3846 8.76908Z" fill="white"/>
<defs>
<filter id="filter0_d" x="-10.3846" y="32.3071" width="60.4615" height="41.0769" filterUnits="userSpaceOnUse" color-interpolation-filters="sRGB">
<feFlood flood-opacity="0" result="BackgroundImageFix"/>
<feColorMatrix in="SourceAlpha" type="matrix" values="0 0 0 0 0 0 0 0 0 0 0 0 0 0 0 0 0 0 127 0"/>
<feOffset dy="15"/>
<feGaussianBlur stdDeviation="7.5"/>
<feColorMatrix type="matrix" values="0 0 0 0 0.0196078431372549  0 0 0 0 0.23137254901960785  0 0 0 0 0.42745098039215684  0 0 0 1 0"/>
<feBlend mode="normal" in2="BackgroundImageFix" result="effect1_dropShadow"/>
<feBlend mode="normal" in="SourceGraphic" in2="effect1_dropShadow" result="shape"/>
</filter>
<filter id="filter1_d" x="21.9231" y="32.3071" width="60.4616" height="41.0769" filterUnits="userSpaceOnUse" color-interpolation-filters="sRGB">
<feFlood flood-opacity="0" result="BackgroundImageFix"/>
<feColorMatrix in="SourceAlpha" type="matrix" values="0 0 0 0 0 0 0 0 0 0 0 0 0 0 0 0 0 0 127 0"/>
<feOffset dy="15"/>
<feGaussianBlur stdDeviation="7.5"/>
<feColorMatrix type="matrix" values="0 0 0 0 0.0196078431372549  0 0 0 0 0.23137254901960785  0 0 0 0 0.42745098039215684  0 0 0 1 0"/>
<feBlend mode="normal" in2="BackgroundImageFix" result="effect1_dropShadow"/>
<feBlend mode="normal" in="SourceGraphic" in2="effect1_dropShadow" result="shape"/>
</filter>
</defs>
</svg>
